<mxfile host="Electron" modified="2023-12-29T09:12:07.004Z" agent="Mozilla/5.0 (Windows NT 10.0; Win64; x64) AppleWebKit/537.36 (KHTML, like Gecko) draw.io/22.0.2 Chrome/114.0.5735.289 Electron/25.8.4 Safari/537.36" etag="-aVh_RxfMB5SCVJd1fGk" version="22.0.2" type="device">
  <diagram id="6a731a19-8d31-9384-78a2-239565b7b9f0" name="Page-1">
    <mxGraphModel dx="1434" dy="844" grid="1" gridSize="10" guides="1" tooltips="1" connect="1" arrows="1" fold="1" page="1" pageScale="1" pageWidth="827" pageHeight="1169" background="none" math="0" shadow="0">
      <root>
        <mxCell id="0" />
        <mxCell id="1" parent="0" />
        <mxCell id="Hd2JBV1E15SSK4Facoz7-2272" value="" style="endArrow=none;html=1;rounded=0;strokeWidth=2;exitX=0.429;exitY=0.737;exitDx=0;exitDy=0;exitPerimeter=0;" edge="1" parent="1" source="Hd2JBV1E15SSK4Facoz7-2266" target="Hd2JBV1E15SSK4Facoz7-2271">
          <mxGeometry width="50" height="50" relative="1" as="geometry">
            <mxPoint x="523" y="590" as="sourcePoint" />
            <mxPoint x="520" y="684" as="targetPoint" />
          </mxGeometry>
        </mxCell>
        <mxCell id="Hd2JBV1E15SSK4Facoz7-2273" value="" style="endArrow=none;html=1;rounded=0;strokeWidth=2;exitX=0.5;exitY=1;exitDx=0;exitDy=0;exitPerimeter=0;" edge="1" parent="1" source="Hd2JBV1E15SSK4Facoz7-2269" target="Hd2JBV1E15SSK4Facoz7-2257">
          <mxGeometry width="50" height="50" relative="1" as="geometry">
            <mxPoint x="523" y="340" as="sourcePoint" />
            <mxPoint x="520" y="434" as="targetPoint" />
          </mxGeometry>
        </mxCell>
        <mxCell id="Hd2JBV1E15SSK4Facoz7-2274" value="" style="endArrow=none;html=1;rounded=0;strokeWidth=2;entryX=0.5;entryY=0;entryDx=0;entryDy=0;exitX=0.5;exitY=1;exitDx=0;exitDy=0;exitPerimeter=0;" edge="1" parent="1" source="Hd2JBV1E15SSK4Facoz7-2270" target="Hd2JBV1E15SSK4Facoz7-2268">
          <mxGeometry width="50" height="50" relative="1" as="geometry">
            <mxPoint x="523" y="340" as="sourcePoint" />
            <mxPoint x="520" y="434" as="targetPoint" />
          </mxGeometry>
        </mxCell>
        <mxCell id="Hd2JBV1E15SSK4Facoz7-2257" value="" style="shape=mxgraph.cisco.security.router_firewall;html=1;pointerEvents=1;dashed=0;fillColor=#036897;strokeColor=#ffffff;strokeWidth=2;verticalLabelPosition=bottom;verticalAlign=top;align=center;outlineConnect=0;" vertex="1" parent="1">
          <mxGeometry x="160" y="330" width="78" height="62" as="geometry" />
        </mxCell>
        <mxCell id="Hd2JBV1E15SSK4Facoz7-2258" value="" style="shape=mxgraph.cisco.security.router_firewall;html=1;pointerEvents=1;dashed=0;fillColor=#036897;strokeColor=#ffffff;strokeWidth=2;verticalLabelPosition=bottom;verticalAlign=top;align=center;outlineConnect=0;" vertex="1" parent="1">
          <mxGeometry x="590" y="330" width="78" height="62" as="geometry" />
        </mxCell>
        <mxCell id="Hd2JBV1E15SSK4Facoz7-2259" value="" style="shape=mxgraph.cisco.security.router_firewall;html=1;pointerEvents=1;dashed=0;fillColor=#036897;strokeColor=#ffffff;strokeWidth=2;verticalLabelPosition=bottom;verticalAlign=top;align=center;outlineConnect=0;" vertex="1" parent="1">
          <mxGeometry x="375" y="730" width="78" height="62" as="geometry" />
        </mxCell>
        <mxCell id="Hd2JBV1E15SSK4Facoz7-2260" value="" style="endArrow=none;html=1;rounded=0;strokeWidth=2;" edge="1" parent="1" source="Hd2JBV1E15SSK4Facoz7-2257" target="Hd2JBV1E15SSK4Facoz7-2259">
          <mxGeometry width="50" height="50" relative="1" as="geometry">
            <mxPoint x="733" y="490" as="sourcePoint" />
            <mxPoint x="730" y="584" as="targetPoint" />
          </mxGeometry>
        </mxCell>
        <mxCell id="Hd2JBV1E15SSK4Facoz7-2261" value="" style="endArrow=none;html=1;rounded=0;strokeWidth=2;" edge="1" parent="1" source="Hd2JBV1E15SSK4Facoz7-2258" target="Hd2JBV1E15SSK4Facoz7-2259">
          <mxGeometry width="50" height="50" relative="1" as="geometry">
            <mxPoint x="733" y="490" as="sourcePoint" />
            <mxPoint x="730" y="584" as="targetPoint" />
          </mxGeometry>
        </mxCell>
        <mxCell id="Hd2JBV1E15SSK4Facoz7-2262" value="S0/0/0" style="text;strokeColor=none;align=center;fillColor=none;html=1;verticalAlign=middle;whiteSpace=wrap;rounded=0;" vertex="1" parent="1">
          <mxGeometry x="238" y="400" width="60" height="30" as="geometry" />
        </mxCell>
        <mxCell id="Hd2JBV1E15SSK4Facoz7-2263" value="S0/0/0" style="text;strokeColor=none;align=center;fillColor=none;html=1;verticalAlign=middle;whiteSpace=wrap;rounded=0;" vertex="1" parent="1">
          <mxGeometry x="530" y="400" width="60" height="30" as="geometry" />
        </mxCell>
        <mxCell id="Hd2JBV1E15SSK4Facoz7-2264" value="S0/0/0" style="text;strokeColor=none;align=center;fillColor=none;html=1;verticalAlign=middle;whiteSpace=wrap;rounded=0;" vertex="1" parent="1">
          <mxGeometry x="315" y="700" width="60" height="30" as="geometry" />
        </mxCell>
        <mxCell id="Hd2JBV1E15SSK4Facoz7-2265" value="S0/0/1" style="text;strokeColor=none;align=center;fillColor=none;html=1;verticalAlign=middle;whiteSpace=wrap;rounded=0;" vertex="1" parent="1">
          <mxGeometry x="453" y="700" width="60" height="30" as="geometry" />
        </mxCell>
        <mxCell id="Hd2JBV1E15SSK4Facoz7-2266" value="HQ" style="text;strokeColor=none;align=center;fillColor=none;html=1;verticalAlign=middle;whiteSpace=wrap;rounded=0;strokeWidth=1;fontSize=14;fontStyle=1" vertex="1" parent="1">
          <mxGeometry x="386" y="762" width="56" height="38" as="geometry" />
        </mxCell>
        <mxCell id="Hd2JBV1E15SSK4Facoz7-2267" value="Branch" style="text;strokeColor=none;align=center;fillColor=none;html=1;verticalAlign=middle;whiteSpace=wrap;rounded=0;strokeWidth=1;fontSize=14;fontStyle=1" vertex="1" parent="1">
          <mxGeometry x="171" y="362" width="59" height="38" as="geometry" />
        </mxCell>
        <mxCell id="Hd2JBV1E15SSK4Facoz7-2268" value="DC" style="text;strokeColor=none;align=center;fillColor=none;html=1;verticalAlign=middle;whiteSpace=wrap;rounded=0;strokeWidth=1;fontSize=14;fontStyle=1" vertex="1" parent="1">
          <mxGeometry x="601" y="362" width="56" height="38" as="geometry" />
        </mxCell>
        <mxCell id="Hd2JBV1E15SSK4Facoz7-2269" value="" style="shape=mxgraph.cisco.switches.layer_3_switch;html=1;dashed=0;fillColor=#10739E;strokeColor=#ffffff;strokeWidth=2;verticalLabelPosition=bottom;verticalAlign=top;fontFamily=Helvetica;fontSize=36;fontColor=#FFB366" vertex="1" parent="1">
          <mxGeometry x="167" y="180" width="64" height="64" as="geometry" />
        </mxCell>
        <mxCell id="Hd2JBV1E15SSK4Facoz7-2270" value="" style="shape=mxgraph.cisco.switches.layer_3_switch;html=1;dashed=0;fillColor=#10739E;strokeColor=#ffffff;strokeWidth=2;verticalLabelPosition=bottom;verticalAlign=top;fontFamily=Helvetica;fontSize=36;fontColor=#FFB366" vertex="1" parent="1">
          <mxGeometry x="597" y="180" width="64" height="64" as="geometry" />
        </mxCell>
        <mxCell id="Hd2JBV1E15SSK4Facoz7-2271" value="" style="shape=mxgraph.cisco.switches.layer_3_switch;html=1;dashed=0;fillColor=#10739E;strokeColor=#ffffff;strokeWidth=2;verticalLabelPosition=bottom;verticalAlign=top;fontFamily=Helvetica;fontSize=36;fontColor=#FFB366" vertex="1" parent="1">
          <mxGeometry x="378" y="890" width="64" height="64" as="geometry" />
        </mxCell>
        <mxCell id="Hd2JBV1E15SSK4Facoz7-2275" value="G0/1" style="text;strokeColor=none;align=center;fillColor=none;html=1;verticalAlign=middle;whiteSpace=wrap;rounded=0;" vertex="1" parent="1">
          <mxGeometry x="200" y="300" width="60" height="30" as="geometry" />
        </mxCell>
        <mxCell id="Hd2JBV1E15SSK4Facoz7-2276" value="G0/1" style="text;strokeColor=none;align=center;fillColor=none;html=1;verticalAlign=middle;whiteSpace=wrap;rounded=0;" vertex="1" parent="1">
          <mxGeometry x="630" y="300" width="60" height="30" as="geometry" />
        </mxCell>
        <mxCell id="Hd2JBV1E15SSK4Facoz7-2277" value="G0/1" style="text;strokeColor=none;align=center;fillColor=none;html=1;verticalAlign=middle;whiteSpace=wrap;rounded=0;" vertex="1" parent="1">
          <mxGeometry x="410" y="792" width="60" height="30" as="geometry" />
        </mxCell>
        <mxCell id="Hd2JBV1E15SSK4Facoz7-2278" value="" style="endArrow=none;html=1;rounded=0;strokeWidth=2;exitX=0.12;exitY=0.91;exitDx=0;exitDy=0;exitPerimeter=0;" edge="1" parent="1" source="Hd2JBV1E15SSK4Facoz7-2259">
          <mxGeometry width="50" height="50" relative="1" as="geometry">
            <mxPoint x="523" y="680" as="sourcePoint" />
            <mxPoint x="220" y="786" as="targetPoint" />
          </mxGeometry>
        </mxCell>
        <mxCell id="Hd2JBV1E15SSK4Facoz7-2279" value="INTERNET" style="ellipse;shape=cloud;whiteSpace=wrap;html=1;" vertex="1" parent="1">
          <mxGeometry x="111" y="742" width="120" height="80" as="geometry" />
        </mxCell>
        <mxCell id="Hd2JBV1E15SSK4Facoz7-2280" value="G0/0" style="text;strokeColor=none;align=center;fillColor=none;html=1;verticalAlign=middle;whiteSpace=wrap;rounded=0;" vertex="1" parent="1">
          <mxGeometry x="315" y="750" width="60" height="30" as="geometry" />
        </mxCell>
        <mxCell id="Hd2JBV1E15SSK4Facoz7-2281" value="10.0.2.0/30" style="text;strokeColor=none;align=center;fillColor=none;html=1;verticalAlign=middle;whiteSpace=wrap;rounded=0;" vertex="1" parent="1">
          <mxGeometry x="530" y="550" width="120" height="30" as="geometry" />
        </mxCell>
        <mxCell id="Hd2JBV1E15SSK4Facoz7-2282" value=".2" style="text;strokeColor=none;align=center;fillColor=none;html=1;verticalAlign=middle;whiteSpace=wrap;rounded=0;" vertex="1" parent="1">
          <mxGeometry x="608" y="392" width="60" height="30" as="geometry" />
        </mxCell>
        <mxCell id="Hd2JBV1E15SSK4Facoz7-2283" value=".1" style="text;strokeColor=none;align=center;fillColor=none;html=1;verticalAlign=middle;whiteSpace=wrap;rounded=0;" vertex="1" parent="1">
          <mxGeometry x="410" y="660" width="60" height="30" as="geometry" />
        </mxCell>
        <mxCell id="Hd2JBV1E15SSK4Facoz7-2284" value=".1" style="text;strokeColor=none;align=center;fillColor=none;html=1;verticalAlign=middle;whiteSpace=wrap;rounded=0;" vertex="1" parent="1">
          <mxGeometry x="360" y="660" width="60" height="30" as="geometry" />
        </mxCell>
        <mxCell id="Hd2JBV1E15SSK4Facoz7-2285" value="10.0.1.0/30" style="text;strokeColor=none;align=center;fillColor=none;html=1;verticalAlign=middle;whiteSpace=wrap;rounded=0;" vertex="1" parent="1">
          <mxGeometry x="200" y="550" width="60" height="30" as="geometry" />
        </mxCell>
        <mxCell id="Hd2JBV1E15SSK4Facoz7-2286" value=".2" style="text;strokeColor=none;align=center;fillColor=none;html=1;verticalAlign=middle;whiteSpace=wrap;rounded=0;" vertex="1" parent="1">
          <mxGeometry x="160" y="392" width="60" height="30" as="geometry" />
        </mxCell>
        <mxCell id="Hd2JBV1E15SSK4Facoz7-2288" value="193.190.120.57" style="text;strokeColor=none;align=center;fillColor=none;html=1;verticalAlign=middle;whiteSpace=wrap;rounded=0;" vertex="1" parent="1">
          <mxGeometry x="286" y="790" width="100" height="30" as="geometry" />
        </mxCell>
      </root>
    </mxGraphModel>
  </diagram>
</mxfile>
